<svg width="154" height="172" viewBox="0 0 154 172" fill="none" xmlns="http://www.w3.org/2000/svg">
<path d="M13.9866 154.501L0 0.46106H153.74L139.735 154.477L76.7766 171.61L13.9866 154.501Z" fill="#1572B6"/>
<path d="M76.87 158.518L127.747 144.673L139.716 13.0591H76.87V158.518Z" fill="#33A9DC"/>
<path d="M76.87 68.8662H102.34L104.096 49.5202H76.87V30.6266H76.9385H125.132L124.671 35.6938L119.944 87.7598H76.87V68.8662Z" fill="white"/>
<path d="M76.9882 117.931L76.901 117.955L55.4666 112.27L54.0966 97.2031H43.6783H34.7732L37.4697 126.867L76.8948 137.613L76.9882 137.588V117.931Z" fill="#EBEBEB"/>
<path d="M100.702 86.9587L98.3853 112.258L76.9198 117.943V137.601L116.376 126.867L116.669 123.676L120.013 86.9587H100.702Z" fill="white"/>
<path d="M76.9385 30.6266V42.3625V49.4713V49.5202H30.5076H30.4454L30.0593 45.2721L29.1812 35.6938L28.7204 30.6266H76.9385Z" fill="#EBEBEB"/>
<path d="M76.87 68.866V80.6019V87.7107V87.7596H55.7657H55.7034L55.3173 83.5114L54.4455 73.9332L53.9846 68.866H76.87Z" fill="#EBEBEB"/>
</svg>
