<svg width="155" height="172" viewBox="0 0 155 172" fill="none" xmlns="http://www.w3.org/2000/svg">
<path d="M14.7417 154.489L0.75 0.46106H154.49L140.48 154.465L77.5267 171.597L14.7417 154.489Z" fill="#E44F26"/>
<path d="M77.6201 158.505L128.493 144.661L140.461 13.0581H77.6201V158.505Z" fill="#F1662A"/>
<path d="M77.6201 70.1805H52.1524L50.3964 50.8361H77.6201V31.944H77.5516H29.3622L29.823 37.0169L34.5492 89.0727H77.6201V70.1805Z" fill="#EBEBEB"/>
<path d="M77.6202 119.241L77.533 119.266L56.1003 113.588L54.7304 98.5215H44.3129H35.4085L38.1048 128.177L77.533 138.922L77.6202 138.897V119.241Z" fill="#EBEBEB"/>
<path d="M77.5517 70.1802V89.0723H101.251L99.0218 113.575L77.5517 119.259V138.916L117.011 128.177L117.298 124.986L121.818 75.2531L122.291 70.1802H117.104H77.5517Z" fill="white"/>
<path d="M77.5517 31.944V43.679V50.7933V50.8361H123.979H124.041L124.427 46.5944L125.305 37.0169L125.766 31.944H77.5517Z" fill="white"/>
</svg>
