<svg width="154" height="152" viewBox="0 0 154 152" fill="none" xmlns="http://www.w3.org/2000/svg">
<path d="M0 0.46106H153.74V151.366H0V0.46106Z" fill="#F7DF1E"/>
<path d="M40.4239 126.568L52.1891 119.579C54.4589 123.529 56.5236 126.872 61.4762 126.872C66.2236 126.872 69.2167 125.049 69.2167 117.959V69.741H83.6643V118.159C83.6643 132.847 74.8929 139.533 62.0956 139.533C50.538 139.533 43.8291 133.657 40.4236 126.567" fill="black"/>
<path d="M91.5119 125.048L103.276 118.363C106.372 123.327 110.397 126.973 117.518 126.973C123.504 126.973 127.321 124.036 127.321 119.984C127.321 115.121 123.4 113.399 116.795 110.564L113.184 109.043C102.76 104.688 95.8457 99.2184 95.8457 87.6704C95.8457 77.0342 104.101 68.9302 117.002 68.9302C126.187 68.9302 132.792 72.0707 137.538 80.2758L126.289 87.3662C123.812 83.0108 121.13 81.289 117.002 81.289C112.771 81.289 110.088 83.9227 110.088 87.3662C110.088 91.6207 112.771 93.3432 118.962 95.9771L122.574 97.4964C134.855 102.663 141.77 107.93 141.77 119.781C141.77 132.545 131.553 139.534 117.828 139.534C104.412 139.534 95.7427 133.254 91.5121 125.048" fill="black"/>
</svg>
