<svg width="227" height="118" viewBox="0 0 227 118" fill="none" xmlns="http://www.w3.org/2000/svg">
<path d="M0.00182314 106.951H7.49182V77.372L19.0878 103.159C20.4553 106.28 22.3278 107.383 26.0017 107.383C29.6756 107.383 31.477 106.28 32.8444 103.159L44.4404 77.372V106.951H51.9304V77.4212C51.9304 74.5404 50.7781 73.1456 48.4006 72.4273C42.7101 70.6514 38.8922 72.1884 37.1638 76.03L25.7847 101.479L14.7667 76.0282C13.1093 72.1884 9.22029 70.6514 3.52985 72.4254C1.15231 73.1456 0 74.5386 0 77.4194V106.951H0.00182314ZM58.1606 82.8728H65.6487V99.1692C65.5794 100.053 65.9332 102.132 70.0355 102.198C72.1286 102.23 86.1934 102.198 86.3246 102.198V82.7926H93.831C93.8657 82.7926 93.8238 109.256 93.8238 109.365C93.8639 115.892 85.7266 117.309 81.9743 117.418H58.3228V112.379C58.3629 112.379 81.9579 112.384 82.0162 112.377C86.8388 111.868 86.2681 109.473 86.2663 108.667V106.701H70.3473C62.9412 106.634 58.2225 103.401 58.1624 99.6815C58.1587 99.3406 58.3246 83.0369 58.1606 82.8728V82.8728Z" fill="#00618A"/>
<path d="M99.6053 106.951H121.142C123.663 106.951 126.114 106.424 128.058 105.512C131.297 104.025 132.882 102.008 132.882 99.3642V93.8908C132.882 91.7302 131.082 89.7118 127.552 88.3699C125.68 87.6479 123.374 87.2668 121.14 87.2668H112.064C109.039 87.2668 107.599 86.3552 107.239 84.3387C107.168 84.098 107.168 83.9065 107.168 83.6659V80.2564C107.168 80.0649 107.168 79.8716 107.239 79.6328C107.599 78.0958 108.392 77.6637 111.057 77.423L111.778 77.3756H133.17V72.3835H112.139C109.114 72.3835 107.529 72.5749 106.089 73.007C101.624 74.4 99.6765 76.608 99.6765 80.4496V84.8182C99.6765 88.1803 103.496 91.0611 109.905 91.7339C110.627 91.7794 111.345 91.8305 112.066 91.8305H119.845C120.134 91.8305 120.422 91.8305 120.639 91.8761C123.016 92.0675 124.023 92.5014 124.745 93.3639C125.177 93.796 125.319 94.2299 125.319 94.7076V99.078C125.319 99.6049 124.96 100.278 124.24 100.854C123.592 101.43 122.511 101.815 121.071 101.911L120.278 101.959H99.6053V106.951ZM179.612 98.2612C179.612 103.397 183.43 106.278 191.135 106.856C191.856 106.903 192.576 106.951 193.296 106.951H212.816V101.959H193.154C188.76 101.959 187.104 100.854 187.104 98.2119V72.3798H179.614V98.2612H179.612ZM137.662 98.5201V80.7158C137.662 76.1941 140.839 73.4501 147.118 72.584C147.767 72.4874 148.491 72.44 149.138 72.44H163.358C164.08 72.44 164.729 72.4874 165.449 72.584C171.729 73.4501 174.906 76.1923 174.906 80.7158V98.5201C174.906 102.192 173.557 104.154 170.449 105.434L177.829 112.094H169.13L163.161 106.705L157.151 107.086H149.138C147.767 107.086 146.325 106.894 144.737 106.46C139.973 105.162 137.662 102.659 137.662 98.5201V98.5201ZM145.747 98.088C145.747 98.3286 145.818 98.5711 145.891 98.8592C146.323 100.929 148.274 102.083 151.231 102.083H158.036L151.786 96.4397H160.484L165.934 101.363C166.941 100.825 167.601 100.008 167.832 98.9558C167.903 98.7152 167.903 98.4745 167.903 98.2338V81.1534C167.903 80.962 167.903 80.7195 167.832 80.4788C167.398 78.5534 165.449 77.4485 162.563 77.4485H151.229C147.911 77.4485 145.745 78.8925 145.745 81.1534V98.088H145.747Z" fill="#E48E00"/>
<path d="M219.405 64.0931C214.802 63.9673 211.284 64.3957 208.276 65.6629C207.421 66.0239 206.059 66.033 205.92 67.1033C206.389 67.5974 206.462 68.3322 206.836 68.9375C207.554 70.0989 208.767 71.656 209.848 72.471C211.027 73.3626 212.245 74.318 213.514 75.0911C215.766 76.4658 218.282 77.2498 220.454 78.6245C221.732 79.4377 223.001 80.4588 224.25 81.3759C224.868 81.8262 225.28 82.5318 226.084 82.8144V82.685C225.663 82.1489 225.553 81.4123 225.167 80.8508L223.464 79.1478C221.799 76.938 219.688 74.9999 217.44 73.3881C215.649 72.1027 211.642 70.3651 210.894 68.2811L210.763 68.1517C212.032 68.0076 213.52 67.5482 214.69 67.2346C216.659 66.7058 218.419 66.8426 220.452 66.3175L223.201 65.5298V65.0084C222.175 63.9545 221.44 62.5579 220.321 61.6043C217.391 59.1082 214.189 56.614 210.894 54.5318C209.067 53.3795 206.808 52.6302 204.87 51.6529C204.221 51.3229 203.076 51.1533 202.644 50.6045C201.625 49.3082 201.072 47.6654 200.287 46.1539C198.646 42.9905 197.03 39.5336 195.573 36.2025C194.581 33.9325 193.932 31.6935 192.694 29.6569C186.749 19.8824 180.349 13.9823 170.436 8.18426C168.326 6.94991 165.787 6.46492 163.105 5.82859L158.783 5.56605C157.906 5.19957 156.991 4.12384 156.165 3.60239C152.88 1.5275 144.456 -2.9851 142.024 2.94965C140.489 6.69465 144.321 10.3485 145.69 12.2465C146.651 13.5775 147.884 15.0689 148.571 16.5658C149.023 17.5504 149.1 18.5368 149.488 19.5779C150.438 22.1414 151.268 24.9328 152.499 27.3013C153.12 28.501 153.808 29.7645 154.593 30.8366C155.075 31.493 155.903 31.7847 156.032 32.8003C155.224 33.9307 155.177 35.6883 154.723 37.1196C152.677 43.5722 153.448 51.5927 156.426 56.3679C157.339 57.8356 159.491 60.9789 162.448 59.7719C165.035 58.7181 164.459 55.4526 165.199 52.57C165.367 51.9191 165.263 51.4377 165.591 51.0002V51.1314L167.949 55.8446C169.694 58.6543 172.788 61.5879 175.412 63.5698C176.772 64.5963 177.844 66.374 179.601 66.9738V66.8407H179.472C179.129 66.3102 178.599 66.0914 178.161 65.6629C177.136 64.6583 175.997 63.4112 175.151 62.2589C172.764 59.0207 170.657 55.4745 168.735 51.7842C167.818 50.0229 167.021 48.0793 166.248 46.2852C165.949 45.5942 165.952 44.5476 165.333 44.1921C164.483 45.5048 163.238 46.5678 162.581 48.1194C161.535 50.599 161.4 53.6238 161.011 56.7599L160.749 56.8893C158.924 56.4499 158.284 54.572 157.606 52.962C155.892 48.8906 155.573 42.3323 157.082 37.6447C157.472 36.4304 159.236 32.6106 158.521 31.4893C158.18 30.3717 157.055 29.7262 156.428 28.8693C155.649 27.8136 154.871 26.4243 154.333 25.2027C152.929 22.0284 152.274 18.4639 150.799 15.2531C150.092 13.7179 148.899 12.1663 147.918 10.8025C146.834 9.28917 145.618 8.17697 144.775 6.35006C144.476 5.70097 144.07 4.65988 144.513 3.99256C144.653 3.54221 144.855 3.35441 145.3 3.20673C146.059 2.62146 148.174 3.40182 148.965 3.73001C151.065 4.60336 152.818 5.43295 154.597 6.61078C155.45 7.17782 156.313 8.27178 157.347 8.57444H158.524C160.368 8.99744 162.434 8.7039 164.155 9.22718C167.2 10.1534 169.927 11.592 172.403 13.1563C179.95 17.9224 186.118 24.7049 190.341 32.7966C191.019 34.1003 191.314 35.3419 191.91 36.7239C193.117 39.5099 194.638 42.3779 195.838 45.1037C197.036 47.8222 198.204 50.5662 199.898 52.8289C200.788 54.0177 204.227 54.6558 205.789 55.3158C206.885 55.779 208.679 56.2621 209.716 56.8857C211.698 58.0818 213.62 59.5057 215.478 60.8148C216.406 61.4749 219.263 62.9098 219.405 64.0931V64.0931ZM160.88 14.2102C159.921 14.1919 159.241 14.3159 158.523 14.4727V14.6022H158.654C159.112 15.5448 159.919 16.1501 160.486 16.9597L161.797 19.7092L161.927 19.5797C162.738 19.009 163.108 18.0956 163.105 16.6989C162.778 16.3562 162.731 15.9277 162.45 15.5211C162.078 14.9741 161.352 14.6678 160.88 14.2102V14.2102Z" fill="#00618A"/>
</svg>
