<svg width="154" height="171" viewBox="0 0 154 171" fill="none" xmlns="http://www.w3.org/2000/svg">
<path d="M76.87 170.592C74.5312 170.593 72.2334 169.989 70.2077 168.842L49.0074 156.523C45.8434 154.785 47.3851 154.171 48.4315 153.812C51.7966 152.792 55.0185 151.363 58.0225 149.558C58.2739 149.444 58.5509 149.394 58.8272 149.415C59.1035 149.435 59.3699 149.524 59.6014 149.673L75.8917 159.172C76.1951 159.33 76.533 159.412 76.8762 159.412C77.2194 159.412 77.5574 159.33 77.8607 159.172L141.388 123.181C141.685 123.007 141.931 122.759 142.101 122.463C142.272 122.167 142.361 121.832 142.36 121.492V49.4977C142.36 49.1522 142.269 48.8124 142.097 48.5112C141.925 48.2099 141.676 47.9573 141.375 47.7778L77.8483 11.8172C77.5487 11.6516 77.2107 11.5646 76.8669 11.5646C76.5231 11.5646 76.1851 11.6516 75.8855 11.8172L12.3958 47.7899C12.093 47.9657 11.8415 48.2153 11.6658 48.5145C11.4901 48.8137 11.396 49.1524 11.3928 49.4977V121.462C11.3936 121.801 11.4864 122.134 11.6616 122.427C11.8367 122.719 12.088 122.961 12.3896 123.127L29.8131 132.997C39.2554 137.628 45.0385 132.17 45.0385 126.688V55.636C45.0385 55.3966 45.0865 55.1595 45.1799 54.9383C45.2732 54.7171 45.41 54.5161 45.5825 54.3468C45.755 54.1775 45.9598 54.0432 46.1852 53.9515C46.4105 53.8599 46.6521 53.8128 46.896 53.8128H54.9452C55.4378 53.8128 55.9103 54.0048 56.2587 54.3468C56.607 54.6887 56.8027 55.1525 56.8027 55.636V126.694C56.8027 139.062 49.9423 146.142 37.9923 146.142C32.837 146.23 27.7625 144.877 23.3613 142.241L6.66231 132.839C4.63508 131.68 2.95297 130.019 1.78392 128.023C0.61487 126.027 -0.000224428 123.764 4.40342e-05 121.462V49.4977C-0.00598164 47.1915 0.606511 44.9243 1.77597 42.924C2.94543 40.9238 4.63066 39.2608 6.66231 38.1024L70.1954 2.09922C72.2419 1.00021 74.5372 0.424194 76.87 0.424194C79.2028 0.424194 81.4981 1.00021 83.5447 2.09922L147.072 38.1024C149.099 39.2589 150.781 40.917 151.951 42.9112C153.121 44.9054 153.738 47.166 153.74 49.4673V121.462C153.737 123.764 153.119 126.026 151.949 128.022C150.779 130.018 149.098 131.678 147.072 132.839L83.5447 168.842C81.5153 169.991 79.213 170.595 76.87 170.592Z" fill="#83CD29"/>
<path d="M64.8209 97.3764C64.8209 96.8929 65.0166 96.4291 65.365 96.0872C65.7133 95.7453 66.1858 95.5532 66.6784 95.5532H74.8948C75.3338 95.5546 75.7582 95.7085 76.0925 95.9878C76.4269 96.267 76.6497 96.6535 76.7214 97.0786C77.9597 105.289 81.6747 109.428 98.4728 109.428C111.853 109.428 117.556 106.456 117.556 99.4853C117.556 95.4681 115.94 92.484 95.1417 90.4845C77.7554 88.795 67.0066 85.0148 67.0066 71.3768C67.0066 58.7964 77.8111 51.2906 95.9218 51.2906C116.274 51.2906 126.348 58.2251 127.623 73.1028C127.643 73.3512 127.61 73.6009 127.528 73.8364C127.445 74.072 127.314 74.2884 127.143 74.4724C126.972 74.6563 126.764 74.8039 126.532 74.9059C126.301 75.008 126.051 75.0625 125.797 75.0659H117.525C117.11 75.0602 116.709 74.9182 116.385 74.6627C116.062 74.4071 115.836 74.0527 115.741 73.6559C113.766 65.0197 108.931 62.2606 95.928 62.2606C81.3156 62.2606 79.6191 67.2563 79.6191 71C79.6191 75.5338 81.6252 76.8587 101.352 79.4174C120.874 81.9517 130.15 85.5374 130.15 99.0052C130.15 112.595 118.608 120.374 98.479 120.374C70.6473 120.41 64.8209 107.884 64.8209 97.3764Z" fill="#83CD29"/>
</svg>
