<svg width="154" height="135" viewBox="0 0 154 135" fill="none" xmlns="http://www.w3.org/2000/svg">
<path d="M126.405 43.978C124.81 43.4391 123.158 42.9293 121.456 42.4472C121.736 41.3268 121.992 40.2209 122.221 39.1339C125.967 21.2841 123.518 6.90413 115.153 2.16964C107.133 -2.37011 94.0164 2.36331 80.7693 13.6792C79.4955 14.7674 78.218 15.9194 76.9412 17.1268C76.0904 16.328 75.2409 15.556 74.3937 14.8176C60.5104 2.71787 46.5944 -2.38112 38.2384 2.36706C30.2258 6.91997 27.8529 20.4385 31.2251 37.3549C31.5508 38.9888 31.9314 40.6574 32.3619 42.354C30.3924 42.9027 28.4911 43.4878 26.6718 44.1101C10.3951 49.6803 0 58.41 0 67.4651C0 76.8172 11.1591 86.1975 28.1126 91.8853C29.4505 92.3342 30.8387 92.7586 32.2694 93.1615C31.805 94.9963 31.4011 96.7944 31.062 98.5481C27.8466 115.171 30.3577 128.37 38.3489 132.894C46.6032 137.566 60.4562 132.764 73.9454 121.19C75.0116 120.275 76.0816 119.305 77.1535 118.288C78.5429 119.601 79.93 120.844 81.3098 122.01C94.3757 133.046 107.28 137.503 115.264 132.966C123.51 128.28 126.19 114.101 122.711 96.8503C122.445 95.5327 122.136 94.1868 121.789 92.8168C122.762 92.5345 123.717 92.2431 124.648 91.9401C142.273 86.2083 153.74 76.9421 153.74 67.4651C153.74 58.3772 143.01 49.5887 126.405 43.978ZM122.582 85.821C121.742 86.0941 120.879 86.3582 120 86.6142C118.055 80.5681 115.429 74.1389 112.215 67.4965C115.282 61.0123 117.806 54.6654 119.697 48.6585C121.27 49.1052 122.796 49.5763 124.267 50.0735C138.494 54.8808 147.172 61.9884 147.172 67.4651C147.172 73.2987 137.8 80.8716 122.582 85.821ZM116.268 98.1023C117.807 105.73 118.026 112.627 117.007 118.019C116.092 122.863 114.25 126.093 111.973 127.387C107.128 130.14 96.7672 126.562 85.593 117.123C84.3121 116.041 83.0218 114.886 81.7274 113.663C86.0593 109.013 90.3888 103.607 94.6143 97.6024C102.047 96.955 109.068 95.8967 115.436 94.4519C115.75 95.6936 116.028 96.9115 116.268 98.1023ZM52.4134 126.911C47.6798 128.552 43.9096 128.599 41.6306 127.309C36.7812 124.564 34.7651 113.966 37.5151 99.7504C37.8301 98.1224 38.205 96.45 38.6371 94.7406C44.935 96.1076 51.9053 97.0912 59.3553 97.684C63.6092 103.559 68.0638 108.96 72.5528 113.688C71.572 114.618 70.5951 115.502 69.6236 116.336C63.6588 121.454 57.6813 125.085 52.4134 126.911ZM30.2367 85.7852C22.7402 83.2702 16.5493 80.0015 12.3057 76.4347C8.49261 73.2294 6.56745 70.0472 6.56745 67.4651C6.56745 61.9701 14.9137 54.9614 28.8337 50.1976C30.5227 49.6195 32.2908 49.0748 34.1256 48.5631C36.0494 54.7056 38.5731 61.1278 41.6186 67.6219C38.5337 74.2125 35.9742 80.737 34.0315 86.9515C32.7234 86.5825 31.4561 86.1941 30.2367 85.7852ZM37.6705 36.1169C34.7813 21.6233 36.7002 10.6899 41.5288 7.94633C46.6722 5.0236 58.0455 9.19079 70.0327 19.6383C70.799 20.3061 71.5682 21.005 72.3396 21.7281C67.8728 26.436 63.459 31.7958 59.2428 37.6364C52.0123 38.2942 45.091 39.3509 38.7274 40.766C38.3273 39.1863 37.9729 37.6343 37.6705 36.1169ZM103.987 52.1901C102.466 49.611 100.904 47.0928 99.3119 44.6433C104.217 45.252 108.917 46.0599 113.33 47.0487C112.005 51.217 110.354 55.5751 108.41 60.0429C107.015 57.4441 105.54 54.8238 103.987 52.1901ZM76.9433 26.3352C79.9727 29.5567 83.0064 33.1533 85.9904 37.0557C82.9835 36.9163 79.9393 36.8437 76.87 36.8437C73.8297 36.8437 70.808 36.9146 67.8197 37.0516C70.8066 33.1856 73.8666 29.5937 76.9433 26.3352ZM49.7264 52.2347C48.2068 54.8211 46.7592 57.4272 45.3865 60.0381C43.4739 55.5859 41.8378 51.2078 40.5012 46.9805C44.8876 46.017 49.5652 45.2291 54.4393 44.632C52.8247 47.104 51.2501 49.6408 49.7264 52.2342V52.2347ZM54.5797 90.758C49.5439 90.2065 44.796 89.4593 40.4107 88.5223C41.7685 84.2195 43.4408 79.748 45.3939 75.1999C46.7701 77.8089 48.2235 80.416 49.7524 83.0081H49.7527C51.3101 85.6488 52.9235 88.2355 54.5797 90.758ZM77.1251 109.049C74.0122 105.753 70.9073 102.106 67.875 98.1836C70.8187 98.297 73.8198 98.355 76.87 98.355C80.0036 98.355 83.1014 98.2857 86.1505 98.1525C83.1567 102.146 80.1339 105.798 77.1251 109.049ZM108.473 74.9681C110.527 79.5653 112.26 84.0135 113.635 88.243C109.177 89.2411 104.365 90.0451 99.2939 90.6425C100.89 88.16 102.465 85.5985 104.013 82.9638C105.579 80.2981 107.066 77.6284 108.473 74.9681ZM98.3243 79.7431C95.9211 83.8332 93.4538 87.7377 90.949 91.4233C86.3869 91.7435 81.6737 91.9084 76.87 91.9084C72.0857 91.9084 67.4319 91.7626 62.9505 91.477C60.3448 87.7431 57.8239 83.8271 55.436 79.7783H55.4365C53.0549 75.7406 50.8629 71.6688 48.8767 67.6198C50.8624 63.5614 53.0486 59.485 55.4165 55.4545L55.416 55.4553C57.7902 51.4141 60.289 47.5172 62.8706 43.8066C67.4429 43.4673 72.1314 43.2903 76.8697 43.2903H76.87C81.6297 43.2903 86.3242 43.4687 90.8951 43.8109C93.4374 47.4943 95.9191 51.3787 98.3027 55.4204C100.713 59.5076 102.928 63.5568 104.93 67.5282C102.934 71.5678 100.724 75.6579 98.3243 79.7431ZM111.873 7.75454C117.021 10.6687 119.023 22.4214 115.788 37.8328C115.582 38.8161 115.35 39.8178 115.097 40.8328C108.719 39.3883 101.793 38.3133 94.5413 37.6455C90.3169 31.7407 85.9392 26.3726 81.5451 21.7251C82.7265 20.6096 83.9062 19.5459 85.081 18.5421C96.4311 8.8467 107.039 5.01877 111.873 7.75454ZM76.87 53.9898C84.4519 53.9898 90.5985 60.0227 90.5985 67.4651C90.5985 74.9071 84.4519 80.9403 76.87 80.9403C69.2881 80.9403 63.1415 74.9071 63.1415 67.4651C63.1415 60.0227 69.2881 53.9898 76.87 53.9898Z" fill="#00D8FF"/>
</svg>
