<svg width="123" height="123" viewBox="0 0 123 123" fill="none" xmlns="http://www.w3.org/2000/svg">
<path d="M0.151093 61.9309V122.984H61.2043H122.258V61.9309V0.877655H61.2043H0.151093V61.9309Z" fill="#007ACC"/>
<path d="M27.1534 62.336L27.1146 67.3366H35.0613H43.0079V89.9166V112.497H48.6286H54.2494V89.9166V67.3366H62.196H70.1426V62.4329C70.1426 59.7195 70.0845 57.4518 70.007 57.3936C69.9488 57.3161 60.2772 57.2773 48.5511 57.2967L27.2116 57.3548L27.1534 62.336Z" fill="white"/>
<path d="M98.679 57.2128C101.78 57.9881 104.145 59.3642 106.315 61.6125C107.44 62.8142 109.106 65.0044 109.242 65.5277C109.281 65.6828 103.97 69.249 100.753 71.2454C100.637 71.3229 100.171 70.819 99.6481 70.0437C98.0781 67.7566 96.4306 66.7681 93.911 66.5937C90.209 66.3417 87.825 68.2799 87.8444 71.5167C87.8444 72.4664 87.9801 73.0285 88.3677 73.8038C89.1818 75.49 90.6936 76.4979 95.4422 78.5524C104.183 82.3125 107.924 84.7934 110.25 88.3209C112.847 92.2554 113.429 98.5352 111.665 103.206C109.727 108.284 104.92 111.734 98.1556 112.878C96.0624 113.246 91.1006 113.188 88.8523 112.781C83.9486 111.909 79.297 109.486 76.4284 106.307C75.3043 105.067 73.1141 101.83 73.2498 101.598C73.3079 101.52 73.8119 101.21 74.374 100.88C74.9166 100.57 76.9711 99.388 78.9093 98.2639L82.4175 96.2288L83.154 97.3141C84.1812 98.8841 86.4295 101.035 87.7863 101.753C91.6821 103.807 97.0315 103.516 99.6674 101.152C100.792 100.125 101.257 99.0585 101.257 97.4886C101.257 96.0737 101.082 95.4535 100.346 94.3875C99.3961 93.0307 97.4579 91.8872 91.9534 89.5032C85.6543 86.7897 82.9408 85.1035 80.4599 82.4288C79.0256 80.8782 77.6689 78.3973 77.1068 76.3235C76.6416 74.5985 76.5253 70.2763 76.8936 68.5319C78.1922 62.446 82.7857 58.2013 89.4144 56.9415C91.5658 56.5345 96.5663 56.6895 98.679 57.2128V57.2128Z" fill="white"/>
</svg>
